<svg xmlns="http://www.w3.org/2000/svg" viewBox="0 0 296.28 10.69"><defs><style>.a,.b{fill:none;stroke:#0078ae;stroke-width:2px;}</style></defs><line class="a" x1="2.65" y1="6.34" x2="296.28" y2="6.34"/><path class="b" d="M2.06,12.29a45.91,45.91,0,0,1,8.33-.18C21,12.21,31,13.45,41.51,14.85c9.63,1.28,19.44,1.82,29.12,2.7,6.52.6,12.9,1.5,19.46,1.47s13-.05,19.5,0c8.92.07,17.26-2,26.09-3s17.24-2.22,25.89-3.84c6.17-1.16,11.75-2.85,18.11-2.27,14.82,1.34,29.65,2.73,44.49,3.85,6.2.47,12.28.52,18.49,1.26,5.26.62,10.6.23,15.8,1.22a39.4,39.4,0,0,0,8.06,1.09c3.62,0,7.55-.47,11.13.12,2.82.47,5.1,1.49,8,1.53,2.25,0,4.5,0,6.74,0" transform="translate(-1.93 -9.07)"/></svg>